<?xml version="1.0" encoding="utf-8"?>
<!-- Generator: Adobe Illustrator 23.1.0, SVG Export Plug-In . SVG Version: 6.00 Build 0)  -->
<svg version="1.1" id="レイヤー_1" xmlns="http://www.w3.org/2000/svg" xmlns:xlink="http://www.w3.org/1999/xlink" x="0px"
	 y="0px" viewBox="0 0 500 500" style="enable-background:new 0 0 500 500;" xml:space="preserve">
<style type="text/css">
	.st0{fill:#4DB789;}
	.st1{fill:#FFFFFF;}
</style>
<g>
	<path class="st0" d="M250,24c30.5,0,60.1,6,88,17.8c26.9,11.4,51,27.7,71.8,48.4c20.8,20.8,37.1,44.9,48.4,71.8
		c11.8,27.8,17.8,57.4,17.8,88s-6,60.1-17.8,88c-11.4,26.9-27.7,51.1-48.4,71.8c-20.8,20.8-44.9,37.1-71.8,48.4
		C310.2,470,280.6,476,250,476s-60.1-6-88-17.8c-26.9-11.4-51.1-27.7-71.8-48.4C69.4,389,53.1,364.9,41.8,338
		C30,310.1,24,280.5,24,250s6-60.1,17.8-88c11.4-26.9,27.7-51.1,48.4-71.8c20.8-20.7,44.9-37,71.8-48.4C189.9,30,219.5,24,250,24
		 M250,0C111.9,0,0,112,0,250s111.9,250,250,250s250-111.9,250-250S388.1,0,250,0L250,0z"/>
</g>
<path class="st0" d="M-409,338.3c0,82.2-38.7,114.2-86.4,114.2s-86.4-31.9-86.4-114.2s38.7-117.1,86.4-117.1S-409,256-409,338.3z"/>
<path class="st1" d="M-443.6,405.9c-15.2-46-15.2-92.1,0-138.1C-480.7,281.7-480.7,392-443.6,405.9z"/>
<g>
	<path class="st0" d="M232.1,359.3c45-26,62.4-79.8,17.7-157.3s-98.6-86.5-143.5-60.6c-45,26-64,77.1-19.3,154.6
		S187.1,385.2,232.1,359.3z M94.9,206.5c10.8,51.6,35.8,95,75.1,130.1C127.5,343.7,67.5,239.8,94.9,206.5z"/>
	<path class="st0" d="M392.2,140c-42.8-24-94.5-14.3-137.1,52.8c1.9,2.9,3.7,6,5.5,9.2c40.2,69.7,30.1,120.3-5,148.6
		c4.1,3.2,8.5,6.1,13.2,8.8c45.2,25.4,99,15.8,142.8-62.2C455.5,219.1,437.4,165.5,392.2,140z M342.9,342.8
		c-27.8-33,31-137.6,73.6-131C377.6,247.4,353,291.1,342.9,342.8z"/>
</g>
<g>
	<circle class="st1" cx="250" cy="250" r="235"/>
	<g>
		<path class="st0" d="M364.9,182.7c65.5,109,39.7,182.1-23.6,220.1S201.4,429.2,136,320.2S94,134.3,157.2,96.3
			S299.4,73.7,364.9,182.7z"/>
		<path class="st1" d="M355.9,310c-16.6-73.1-53.2-134.1-110-183C306.2,115.9,394,262,355.9,310z"/>
	</g>
	<g>
		<path class="st0" d="M250,24c30.5,0,60.1,6,88,17.8c26.9,11.4,51,27.7,71.8,48.4c20.8,20.8,37.1,44.9,48.4,71.8
			c11.8,27.8,17.8,57.4,17.8,88s-6,60.1-17.8,88c-11.4,26.9-27.7,51.1-48.4,71.8c-20.8,20.8-44.9,37.1-71.8,48.4
			C310.2,470,280.6,476,250,476s-60.1-6-88-17.8c-26.9-11.4-51.1-27.7-71.8-48.4C69.4,389,53.1,364.9,41.8,338
			C30,310.1,24,280.5,24,250s6-60.1,17.8-88c11.4-26.9,27.7-51.1,48.4-71.8c20.8-20.7,44.9-37,71.8-48.4C189.9,30,219.5,24,250,24
			 M250,0C111.9,0,0,112,0,250s111.9,250,250,250s250-111.9,250-250S388.1,0,250,0L250,0z"/>
	</g>
</g>
</svg>
