<?xml version="1.0" encoding="utf-8"?>
<!-- Generator: Adobe Illustrator 23.1.0, SVG Export Plug-In . SVG Version: 6.00 Build 0)  -->
<svg version="1.1" id="レイヤー_1" xmlns="http://www.w3.org/2000/svg" xmlns:xlink="http://www.w3.org/1999/xlink" x="0px"
	 y="0px" viewBox="0 0 500 500" style="enable-background:new 0 0 500 500;" xml:space="preserve">
<style type="text/css">
	.st0{fill:#4DB789;}
</style>
<g>
	<g>
		<path class="st0" d="M250,24c30.5,0,60.1,6,88,17.8c26.9,11.4,51,27.7,71.8,48.4c20.8,20.8,37.1,44.9,48.4,71.8
			c11.8,27.8,17.8,57.4,17.8,88s-6,60.1-17.8,88c-11.4,26.9-27.7,51.1-48.4,71.8c-20.8,20.8-44.9,37.1-71.8,48.4
			C310.2,470,280.6,476,250,476s-60.1-6-88-17.8c-26.9-11.4-51.1-27.7-71.8-48.4C69.4,389,53.1,364.9,41.8,338
			C30,310.1,24,280.5,24,250s6-60.1,17.8-88c11.4-26.9,27.7-51.1,48.4-71.8c20.8-20.7,44.9-37,71.8-48.4C189.9,30,219.5,24,250,24
			 M250,0C111.9,0,0,112,0,250s111.9,250,250,250s250-111.9,250-250S388.1,0,250,0L250,0z"/>
	</g>
	<g>
		<path class="st0" d="M233,359.3c45-26,62.4-79.8,17.7-157.3s-98.6-86.5-143.5-60.6c-45,26-64,77.1-19.3,154.6S188,385.2,233,359.3
			z M95.8,206.5c10.8,51.6,35.8,95,75.1,130.1C128.4,343.7,68.4,239.8,95.8,206.5z"/>
		<path class="st0" d="M393.1,140c-42.4-23.8-93.6-14.4-136,51.2c1.1,1.7,2.1,3.5,3.2,5.3c22.5,38.9,31.2,74.4,26.1,105.3
			c-3.3,20-12.4,37.3-26.7,51.2c3.2,2.3,6.5,4.4,10.1,6.4c45.2,25.4,99,15.8,142.8-62.2C456.4,219.1,438.3,165.5,393.1,140z
			 M343.8,342.8c-27.8-33,31-137.6,73.6-131C378.5,247.4,353.9,291.1,343.8,342.8z"/>
	</g>
</g>
</svg>
